# xmcd CD database file
#
# Track frame offsets:
#	150
#	24937
#	50755
#	73335
#	97890
#	119157
#	137207
#	156545
#	176885
#	206255
#	222110
#
# Disc length: 3405 seconds
#
# Revision: 0
# Processed by: cddbd v1.5.2PL0 Copyright (c) Steve Scherf et al.
# Submitted via: CDex 1.70beta2
#
DISCID=aa0d4b0b
DTITLE=Varios - Super Exitos
DYEAR=1992
DGENRE=Salsa
TTITLE0=Disco Azucar
TTITLE1=Tu No Me Calculas
TTITLE2=Ella Es Un Reloj
TTITLE3=Mi Salsa Tiene Sandunga
TTITLE4=Ella Quiere Que Le Den Consejo
TTITLE5=Aunque Tu Mami No Quiera
TTITLE6=La Novia De Un Amigo Mío
TTITLE7=A La Hora Que Me Llamen Voy
TTITLE8=Ese Es Mi Problema
TTITLE9=Camina Y Prende El Fogon
TTITLE10=Viejo Lazaro
EXTD=YEAR: 1992
EXTT0=
EXTT1=
EXTT2=
EXTT3=
EXTT4=
EXTT5=
EXTT6=
EXTT7=
EXTT8=
EXTT9=
EXTT10=
PLAYORDER=
